{"title":"Stauffenberg-AC3-XviD-DVDRip 2004 TBS","uid":6330206,"size":1567443176,"categoryP":"video","categoryS":"movies","magnet":"?xt=urn:btih:dbf1154b59efbf0cf33f630752a24da77f9e2a91&amp;dn=Stauffenberg-AC3-XviD-DVDRip+2004+TBS&amp;tr=udp%3A%2F%2Ftracker.openbittorrent.com%3A80&amp;tr=udp%3A%2F%2Fopen.demonii.com%3A1337&amp;tr=udp%3A%2F%2Ftracker.coppersurfer.tk%3A6969&amp;tr=udp%3A%2F%2Fexodus.desync.com%3A6969","seeders":1,"leechers":0,"uploader":"FatFreddy30","files":-1,"time":1303253722,"description":"AKA Operation Valkyrie\n\nIn 1944, a group of high command officers plot an attempt against Hitler, and one of the leaders of the conspiracy, Stauffenberg (Sebastian Koch), goes to a meeting with the Fuhrer in charge of exploding the place. However, Hitler survives and the officers are executed. This unsuccessful operation was called &quot;Valkyrie Operation&quot;, and this realistic movie discloses this true event...\n &lt;a href=&quot;\nhttp://www.imdb.com/title/tt0388437/&quot; rel=&quot;nofollow&quot; target=&quot;_NEW&quot;&gt;\nhttp://www.imdb.com/title/tt0388437/&lt;/a&gt;\n\nAudio: German  Subs: Dutch, English.\n\n\nOp 20 juli 1944 probeerden enkele officieren onder leiding van kolonel Claus Graaf Schenk von Stauffenberg, Hitler om te brengen. Hiervoor hadden zij een bom in een aktentas verstopt...\n &lt;a href=&quot;\nhttp://www.moviemeter.nl/film/20339&quot; rel=&quot;nofollow&quot; target=&quot;_NEW&quot;&gt;\nhttp://www.moviemeter.nl/film/20339&lt;/a&gt;\n\nAudio: Duits  Subs: Engels, Nederlands.\n\nGeneral\nComplete name                    : Stauffenberg-AC3-XviD-DVDRip 2004.avi\nFormat                           : AVI\nFormat/Info                      : Audio Video Interleave\nFile size                        : 1.46 GiB\nDuration                         : 1h 32mn\nOverall bit rate                 : 2 270 Kbps\nWriting application              : VirtualDubMod 1.5.4.1 (build 2178/release)\nWriting library                  : VirtualDubMod build 2178/release\nSource                           : Original Pal Retail\n\nVideo\nID                               : 0\nFormat                           : MPEG-4 Visual\nFormat profile                   : Simple@L3\nFormat settings, BVOP            : No\nFormat settings, QPel            : No\nFormat settings, GMC             : No warppoints\nFormat settings, Matrix          : Default (H.263)\nCodec ID                         : XVID\nCodec ID/Hint                    : XviD\nDuration                         : 1h 32mn\nBit rate                         : 1 812 Kbps\nWidth                            : 720 pixels\nHeight                           : 400 pixels\nDisplay aspect ratio             : 16:9\nFrame rate                       : 25.000 fps\nResolution                       : 8 bits\nColorimetry                      : 4:2:0\nScan type                        : Progressive\nBits/(Pixel*Frame)               : 0.252\nStream size                      : 1.16 GiB (80%)\nWriting library                  : XviD 1.1.2 (UTC 2006-11-01)\n\nAudio\nID                               : 1\nFormat                           : AC-3\nFormat/Info                      : Audio Coding 3\nCodec ID                         : 2000\nDuration                         : 1h 32mn\nBit rate mode                    : Constant\nBit rate                         : 448 Kbps\nChannel(s)                       : 6 channels\nChannel positions                : Front: L C R, Surround: L R, LFE\nSampling rate                    : 48.0 KHz\nStream size                      : 295 MiB (20%)\nAlignment                        : Split accross interleaves\nInterleave, duration             : 40 ms (1.00 video frame)\nInterleave, preload duration     : 500 ms\n\nEnjoy..\n\nTBS.","torrent":{"xt":"urn:btih:dbf1154b59efbf0cf33f630752a24da77f9e2a91","amp;dn":"Stauffenberg-AC3-XviD-DVDRip+2004+TBS","amp;tr":["udp%3A%2F%2Ftracker.openbittorrent.com%3A80","udp%3A%2F%2Fopen.demonii.com%3A1337","udp%3A%2F%2Ftracker.coppersurfer.tk%3A6969","udp%3A%2F%2Fexodus.desync.com%3A6969"],"infoHash":"dbf1154b59efbf0cf33f630752a24da77f9e2a91","infoHashBuffer":{"type":"Buffer","data":[219,241,21,75,89,239,191,12,243,63,99,7,82,162,77,167,127,158,42,145]},"announce":[],"urlList":[]}}